<?xml version="1.0" standalone="no"?>
<!DOCTYPE svg PUBLIC "-//W3C//DTD SVG 20010904//EN"
 "http://www.w3.org/TR/2001/REC-SVG-20010904/DTD/svg10.dtd">
<svg version="1.0" xmlns="http://www.w3.org/2000/svg"
 width="512.000000pt" height="512.000000pt" viewBox="0 0 512.000000 512.000000"
 preserveAspectRatio="xMidYMid meet">

<g transform="translate(0.000000,512.000000) scale(0.100000,-0.100000)"
fill="#000000" stroke="none">
<path d="M235 5086 c-66 -21 -101 -43 -144 -92 -77 -88 -71 117 -71 -2440 0
-2261 0 -2294 20 -2346 28 -74 70 -122 142 -157 l61 -31 194 0 193 0 0 2540 0
2540 -177 -1 c-114 0 -192 -5 -218 -13z"/>
<path d="M790 2560 l0 -2540 1273 2 1272 3 54 30 c29 16 69 50 88 74 68 90 63
-95 61 2451 l-3 2305 -27 50 c-34 64 -80 108 -143 137 l-50 23 -1262 3 -1263
2 0 -2540z"/>
<path d="M4140 5087 c-62 -17 -113 -50 -150 -97 -62 -78 -64 -90 -68 -377 l-4
-262 497 -3 c478 -3 497 -4 511 -22 12 -16 14 -93 14 -438 l0 -419 25 -24 c32
-33 78 -33 110 0 l25 24 0 423 c0 270 -4 437 -11 462 -6 21 -29 58 -51 82 -50
54 -109 74 -224 74 l-82 0 -4 183 c-3 176 -4 184 -31 239 -32 64 -80 111 -146
142 -39 17 -69 21 -206 23 -107 2 -175 -2 -205 -10z"/>
<path d="M3924 4177 c-2 -7 -3 -796 -2 -1752 l3 -1740 28 -78 c36 -102 78
-166 198 -304 l99 -113 0 -64 c0 -52 4 -66 23 -84 26 -25 73 -28 99 -8 25 18
38 60 38 118 0 49 2 52 93 155 119 134 161 199 195 298 l27 80 0 1750 0 1750
-398 3 c-319 2 -399 0 -403 -11z"/>
</g>
</svg>
