<svg width="35" height="35" viewBox="0 0 35 35" fill="none" xmlns="http://www.w3.org/2000/svg">
<path fill-rule="evenodd" clip-rule="evenodd" d="M9.625 0C10.5915 0 11.375 0.746192 11.375 1.66667V3.33333H23.625V1.66667C23.625 0.746192 24.4085 0 25.375 0C26.3415 0 27.125 0.746192 27.125 1.66667V3.37448C31.5467 3.79258 35 7.34554 35 11.6667V26.6667C35 31.269 31.0825 35 26.25 35H8.75C3.91751 35 0 31.269 0 26.6667V11.6667C0 7.34554 3.45334 3.79258 7.875 3.37448V1.66667C7.875 0.746192 8.6585 0 9.625 0ZM3.79873 10H31.2013C30.4806 8.05801 28.5359 6.66667 26.25 6.66667H8.75C6.46412 6.66667 4.51945 8.05801 3.79873 10ZM31.5 13.3333H3.5V26.6667C3.5 29.4281 5.8505 31.6667 8.75 31.6667H26.25C29.1495 31.6667 31.5 29.4281 31.5 26.6667V13.3333ZM7 18.3333C7 17.4129 7.7835 16.6667 8.75 16.6667H15.75C16.7165 16.6667 17.5 17.4129 17.5 18.3333V25C17.5 25.9205 16.7165 26.6667 15.75 26.6667H8.75C7.7835 26.6667 7 25.9205 7 25V18.3333ZM14 20H10.5V23.3333H14V20Z" fill="#BFBFBF"/>
</svg>
